<?xml version="1.0" encoding="UTF-8"?>
<svg xmlns="http://www.w3.org/2000/svg" version="1.1" viewBox="0 0 80 80">
  <defs>
    <style>
      .cls-1 {
        fill: #ffffff;
        fill-rule: evenodd;
      }
    </style>
  </defs>
  <!-- Generator: Adobe Illustrator 28.7.7, SVG Export Plug-In . SVG Version: 1.2.0 Build 194)  -->
  <g>
    <g id="Layer_1">
      <g>
        <path class="cls-1" d="M40.5,54.4v-1.1c0-.3-.2-.5-.5-.5s-.5.2-.5.5v1.1c0,.3.2.5.5.5s.5-.2.5-.5Z"/>
        <path class="cls-1" d="M39.5,57.7v1.1c0,.3.2.5.5.5s.5-.2.5-.5v-1.1c0-.3-.2-.5-.5-.5s-.5.2-.5.5Z"/>
        <path class="cls-1" d="M57.3,38.9h3l2.1-4.7-1.9-2.2c.2-1.1.4-2.2.5-3.3l2.7-1.5-.4-5.1-2.9-1c-.3-1.2-.8-2.1-1.2-3.2l1.5-2.6-3-4.3-3,.5c-.8-.7-1.6-1.5-2.6-2.1v-3l-4.7-2.1-2.3,1.9c-1.1-.2-2.3-.4-3.3-.5l-1.5-2.7-5.1.2-1,2.9c-1.2.3-2.1.7-3.2,1.2l-2.6-1.5-4.3,3,.5,3c-.8.7-1.5,1.6-2.1,2.6h-3l-2.1,4.7,1.8,2.2c-.2,1.1-.4,2.2-.5,3.3l-2.7,1.5.4,5.1,2.9,1c.3,1.2.8,2.1,1.2,3.2l-1.5,2.6,3,4.3,3-.5c.8.7,1.6,1.5,2.6,2.1v3l4.7,2.1,2.1-1.9c1.1.2,2.3.4,3.3.5l1.5,2.7h.1c0,.3.2.4.5.4s.5-.2.5-.5l4-.3,1-2.9c1.2-.3,2.1-.7,3.2-1.2l2.7,1.7,4.3-3-.5-3c.8-.7,1.5-1.6,2.1-2.6ZM51.1,44.8l-2.4-1.4-.5.2c-1.3.6-2.6,1.1-3.9,1.4h-.5c0,.1-.9,2.8-.9,2.8l-2.4.2-1.4-2.5h-.5c-1.3-.1-2.7-.4-4-.7l-.5-.2-2,1.6-2.1-1v-2.8l-.5-.3c-1.1-.7-2.1-1.6-3.1-2.6l-.4-.4-2.8.5-1.4-1.9,1.4-2.4-.2-.5c-.6-1.3-1.1-2.6-1.4-3.9v-.5c-.1,0-2.8-.9-2.8-.9l-.2-2.4,2.5-1.4v-.5c.1-1.3.3-2.7.8-4l.2-.5-1.8-2.1,1-2.1h2.8l.3-.5c.8-1.1,1.6-2.1,2.6-3.1l.4-.3-.4-2.8,1.9-1.4,2.4,1.4.4-.2c1.3-.6,2.6-1.1,3.9-1.4h.6c0-.1.9-2.8.9-2.8l2.4-.2,1.4,2.5h.5c1.3.1,2.7.3,4,.7l.5.2,2.1-1.8,2.1,1v2.8l.5.3c1.1.7,2.1,1.6,3.1,2.6l.4.4,2.8-.5,1.2,2-1.4,2.4.2.5c.6,1.3,1.1,2.6,1.4,3.9v.5c.1,0,2.8.9,2.8.9l.2,2.4-2.5,1.4v.5c-.1,1.3-.3,2.7-.8,4l-.2.5,1.8,2.1-1,2.1h-2.8l-.3.5c-.8,1.1-1.6,2.1-2.6,3.1l-.4.4.5,2.8-1.9,1.4Z"/>
        <path class="cls-1" d="M39.9,15.5c-6.1,0-11.1,4.9-11.1,11s4.9,11,11.1,11,11-4.9,11.1-11c0-6.1-4.9-11-11.1-11ZM39.9,35.5c-4.9,0-8.9-4-8.9-8.9s4-8.9,8.9-8.9,8.9,4,8.9,8.9-4,8.9-8.9,8.9Z"/>
        <path class="cls-1" d="M31.9,55.5h-1.1c-.3,0-.5.2-.5.5s.2.5.5.5h1.1c.3,0,.5-.2.5-.5s-.2-.5-.5-.5Z"/>
        <path class="cls-1" d="M23.4,55.5h-1.1c-.3,0-.5.2-.5.5s.2.5.5.5h1.1c.3,0,.5-.2.5-.5s-.2-.5-.5-.5Z"/>
        <path class="cls-1" d="M27.7,55.5h-1.1c-.3,0-.5.2-.5.5s.2.5.5.5h1.1c.3,0,.5-.2.5-.5s-.2-.5-.5-.5Z"/>
        <path class="cls-1" d="M13.7,56.6h1.1c.3,0,.5-.2.5-.5s-.2-.5-.5-.5h-1.1c-.3,0-.5.2-.5.5s.2.5.5.5Z"/>
        <path class="cls-1" d="M19.1,56.6c.3,0,.5-.2.5-.5s-.2-.5-.5-.5h-1.1c-.3,0-.5.2-.5.5s.2.5.5.5h1.1Z"/>
        <path class="cls-1" d="M65.3,56.6h1.1c.3,0,.5-.2.5-.5s-.2-.5-.5-.5h-1.1c-.3,0-.5.2-.5.5s.2.5.5.5Z"/>
        <path class="cls-1" d="M13.6,60.6c.3,0,.5-.2.5-.5v-1.1c0-.3-.2-.5-.5-.5s-.5.2-.5.5v1.1c0,.3.2.5.5.5Z"/>
        <path class="cls-1" d="M66.4,58.6c-.3,0-.5.2-.5.5v1.1c0,.3.2.5.5.5s.5-.3.5-.5v-1.1c0-.3-.2-.5-.5-.5Z"/>
        <path class="cls-1" d="M49.1,55.5h-1.1c-.3,0-.5.2-.5.5s.2.5.5.5h1.1c.3,0,.5-.2.5-.5s-.2-.5-.5-.5Z"/>
        <path class="cls-1" d="M53.4,55.5h-1.1c-.3,0-.5.2-.5.5s.2.5.5.5h1.1c.3,0,.5-.2.5-.5s-.2-.5-.5-.5Z"/>
        <path class="cls-1" d="M57.7,55.5h-1.1c-.3,0-.5.2-.5.5s.2.5.5.5h1.1c.3,0,.5-.2.5-.5s-.2-.5-.5-.5Z"/>
        <path class="cls-1" d="M62,55.5h-1.1c-.3,0-.5.2-.5.5s.2.5.5.5h1.1c.3,0,.5-.2.5-.5s-.2-.5-.5-.5Z"/>
        <path class="cls-1" d="M44.8,56.6c.3,0,.5-.2.5-.5s-.2-.5-.5-.5h-1.1c-.3,0-.5.2-.5.5s.2.5.5.5h1.1Z"/>
        <path class="cls-1" d="M36.2,56.6c.3,0,.5-.2.5-.5s-.2-.5-.5-.5h-1.1c-.3,0-.5.2-.5.5s.2.5.5.5h1.1Z"/>
        <path class="cls-1" d="M38.9,56c0,.3.2.5.5.5h1.1c.3,0,.5-.2.5-.5s-.2-.5-.5-.5h-1.1c-.3,0-.5.2-.5.5Z"/>
        <path class="cls-1" d="M67,63.5h0c0-.5-.2-.7-.5-.7s-.5.2-.5.5h0c-3.7.4-6.8,3.6-6.8,7.4s3.2,7.3,7.3,7.3,7.3-3.3,7.3-7.3-3-7-6.8-7.2ZM66.4,75.7c-2.8,0-5.2-2.4-5.2-5.1s2.3-5.1,5.2-5.1,5.2,2.4,5.2,5.1-2.4,5.1-5.2,5.1Z"/>
        <path class="cls-1" d="M40.3,63.4c.1,0,.2-.2.2-.4v-1.1c0-.3-.2-.5-.5-.5s-.5.2-.5.5v1.1c0,.2,0,.4.2.4-3.8.2-7,3.4-7,7.3s3.2,7.3,7.3,7.3,7.3-3.3,7.3-7.3-3.2-7.1-7-7.3ZM40,75.7c-2.8,0-5.2-2.4-5.2-5.1s2.3-5.1,5.2-5.1,5.2,2.4,5.2,5.1-2.3,5.1-5.2,5.1Z"/>
        <path class="cls-1" d="M14.1,63.3h0c0-.3-.2-.6-.5-.6s-.5.2-.5.5h0c-3.7.3-6.8,3.4-6.8,7.3s3.3,7.4,7.3,7.4,7.3-3.4,7.3-7.4-3-7-6.8-7.2ZM13.6,75.7c-2.8,0-5.2-2.4-5.2-5.1s2.3-5.1,5.2-5.1,5.2,2.4,5.2,5.1-2.4,5.1-5.2,5.1Z"/>
      </g>
    </g>
  </g>
</svg>
