<svg viewBox="0 0 512 512" xmlns="http://www.w3.org/2000/svg">
  <path fill="#fff" d="M128.2 90.4a41.2 41.2 0 0 1 40.7 40.6 40.8 40.8 0 0 1-40.7 40.7A40.4 40.4 0 0 1 87.5 131a40 40 0 0 1 40.7-40.6m22.6 331.2h-46.4c-6.4 0-11.6-5.3-11.6-11.7V206.6c0-6.3 4.6-11.6 11-11.6h47c6.5 0 11.7 5.3 11.7 11.7v203.9c0 5.8-5.3 11-11.7 11M424 265.8c0-43-32-76.6-74.9-76.6h-12.2a71 71 0 0 0-58.2 29L273 224v-23.3c0-2.3-3.5-5.8-5.8-5.8h-58.2c-2.3 0-5.8 2.4-5.8 5.3v216.6c0 2.4 3.5 4.7 5.8 4.7h64c2.3 0 5.7-2.3 5.7-4.6V291.4a39.5 39.5 0 0 1 37.8-40.2A39.5 39.5 0 0 1 345 263c7 7 9.9 16.8 9.9 27.9v125c0 2.2 3.5 5.7 5.8 5.7h58.1c2.3 0 5.8-3.5 5.8-5.8V265.8h-.6z" class="svg-icon"/>
</svg>