<svg width="40" height="40" fill="none" xmlns="http://www.w3.org/2000/svg"><path d="M40 6.25A6.25 6.25 0 0033.75 0H6.25A6.25 6.25 0 000 6.25v27.5A6.25 6.25 0 006.25 40h27.5A6.25 6.25 0 0040 33.75V6.25z" fill="#4A154B"/><path d="M14.22 22.643a2.1 2.1 0 01-2.102 2.102 2.1 2.1 0 01-2.102-2.102 2.1 2.1 0 012.102-2.102h2.102v2.102zm1.051 0a2.1 2.1 0 012.102-2.102 2.1 2.1 0 012.102 2.102v5.255A2.1 2.1 0 0117.373 30a2.1 2.1 0 01-2.102-2.102v-5.255z" fill="#E01E5A"/><path d="M17.373 14.204a2.1 2.1 0 01-2.102-2.102A2.1 2.1 0 0117.373 10a2.1 2.1 0 012.102 2.102v2.102h-2.102zm0 1.066a2.1 2.1 0 012.101 2.102 2.1 2.1 0 01-2.101 2.102h-5.271A2.1 2.1 0 0110 17.372a2.1 2.1 0 012.102-2.101h5.27z" fill="#36C5F0"/><path d="M25.797 17.372a2.1 2.1 0 012.101-2.101A2.1 2.1 0 0130 17.372a2.1 2.1 0 01-2.102 2.102h-2.101v-2.102zm-1.052.001a2.1 2.1 0 01-2.102 2.101 2.1 2.1 0 01-2.102-2.101v-5.271A2.1 2.1 0 0122.643 10a2.1 2.1 0 012.102 2.102v5.27z" fill="#2EB67D"/><path d="M22.643 25.796a2.1 2.1 0 012.102 2.102A2.1 2.1 0 0122.643 30a2.1 2.1 0 01-2.102-2.102v-2.102h2.102zm0-1.051a2.1 2.1 0 01-2.102-2.102 2.1 2.1 0 012.102-2.102h5.271a2.1 2.1 0 012.102 2.102 2.1 2.1 0 01-2.102 2.102h-5.27z" fill="#ECB22E"/></svg>