<svg width="40" height="40" fill="none" xmlns="http://www.w3.org/2000/svg"><path d="M40 6.25A6.25 6.25 0 0033.75 0H6.25A6.25 6.25 0 000 6.25v27.5A6.25 6.25 0 006.25 40h27.5A6.25 6.25 0 0040 33.75V6.25z" fill="#167E50"/><g filter="url(#filter0_d_4786_12397)"><path fill="#DBDBD7" d="M6 6h28v28H6z"/></g><path fill="#09A769" d="M6 6h28v8H6z"/><path stroke="#61CE98" d="M9 10.5h22"/><path fill="#40B287" d="M9 17h6v6H9z"/><path fill="#BDB6BB" d="M17 17h6v6h-6zm8 0h6v6h-6z"/><path fill="#40B287" d="M9 25h6v6H9z"/><path fill="#BDB6BB" d="M17 25h6v6h-6z"/><path fill="#40B287" d="M25 25h6v6h-6z"/><defs><filter id="filter0_d_4786_12397" x="3" y="4" width="34" height="34" filterUnits="userSpaceOnUse" color-interpolation-filters="sRGB"><feFlood flood-opacity="0" result="BackgroundImageFix"/><feColorMatrix in="SourceAlpha" values="0 0 0 0 0 0 0 0 0 0 0 0 0 0 0 0 0 0 127 0" result="hardAlpha"/><feOffset dy="1"/><feGaussianBlur stdDeviation="1.5"/><feComposite in2="hardAlpha" operator="out"/><feColorMatrix values="0 0 0 0 0 0 0 0 0 0 0 0 0 0 0 0 0 0 0.14 0"/><feBlend in2="BackgroundImageFix" result="effect1_dropShadow_4786_12397"/><feBlend in="SourceGraphic" in2="effect1_dropShadow_4786_12397" result="shape"/></filter></defs></svg>