<svg width="40" height="40" fill="none" xmlns="http://www.w3.org/2000/svg"><path d="M40 6.25A6.25 6.25 0 0033.75 0H6.25A6.25 6.25 0 000 6.25v27.5A6.25 6.25 0 006.25 40h27.5A6.25 6.25 0 0040 33.75V6.25z" fill="#003D2E"/><path d="M18.534 17v3.028c0 .904.023 1.808-.009 2.71-.036 1.03.346 1.681 1.571 1.72.217.005.43.163.644.249l-.045.293h-7.166l-.07-.268c.334-.107.662-.25 1.008-.315.775-.147 1.166-.543 1.163-1.294-.006-4.24-.002-8.482 0-12.722 0-.913-.452-1.423-1.46-1.51-.381-.034-.754-.177-1.13-.271l-.038-.309c.285-.107.572-.302.859-.302 4.228-.017 8.454-.006 12.68.002.109 0 .215.046.459.103v3.88l-.298.098c-.206-.285-.47-.548-.608-.86-.586-1.337-1.65-2.02-3.182-2.105-1.008-.054-2.027-.197-3.02-.1-.463.046-1.233.547-1.25.87-.094 1.901-.01 3.81.021 5.716 0 .088.106.176.256.407 2.465-.176 5.566 1.236 6.542-2.851l.373.432v6.345c-.088.04-.176.077-.267.117-.183-.354-.409-.696-.54-1.068-.518-1.468-1.082-1.922-2.732-1.989-1.146-.046-2.294-.008-3.763-.008l.002.002z" fill="#fff"/><path fill="#A5E585" d="M13 30h14v2H13z"/></svg>