<svg width="40" height="41" fill="none" xmlns="http://www.w3.org/2000/svg"><path d="M0 4.1C0 1.836 1.79 0 4 0h32c2.21 0 4 1.836 4 4.1v32.8c0 2.264-1.79 4.1-4 4.1H4c-2.21 0-4-1.836-4-4.1V4.1z" fill="#FF0004"/><path d="M12.76 25.194c-.806.738-1.836 1.106-3.091 1.106-1.553 0-2.773-.498-3.662-1.494-.889-1-1.333-2.373-1.333-4.116 0-1.885.505-3.338 1.516-4.358.879-.889 1.997-1.333 3.354-1.333 1.817 0 3.145.596 3.985 1.787.464.67.713 1.34.747 2.014H12.02c-.146-.517-.335-.908-.564-1.172-.41-.468-1.018-.703-1.824-.703-.82 0-1.467.332-1.94.996-.474.66-.711 1.595-.711 2.806 0 1.21.249 2.119.747 2.724.503.6 1.14.901 1.912.901.79 0 1.394-.259 1.809-.776.23-.279.42-.696.571-1.253h2.234c-.195 1.177-.694 2.134-1.494 2.871zm7.14-.754c.533 0 .965-.059 1.297-.176.63-.224.945-.642.945-1.252 0-.357-.156-.633-.469-.828-.312-.19-.803-.359-1.472-.505l-1.142-.257c-1.123-.253-1.9-.53-2.33-.827-.727-.498-1.09-1.277-1.09-2.337 0-.966.35-1.77 1.054-2.41.703-.639 1.736-.959 3.098-.959 1.138 0 2.107.303 2.908.908.805.6 1.228 1.475 1.267 2.622h-2.168c-.04-.649-.322-1.11-.85-1.384-.351-.18-.788-.27-1.31-.27-.582 0-1.046.116-1.392.35a1.12 1.12 0 00-.52.982c0 .386.17.674.512.864.22.127.689.276 1.407.447l1.86.447c.815.195 1.43.456 1.846.784.644.508.966 1.242.966 2.204 0 .987-.378 1.807-1.135 2.461-.752.65-1.816.974-3.193.974-1.407 0-2.512-.32-3.318-.96-.806-.644-1.209-1.527-1.209-2.65h2.154c.068.493.202.861.403 1.105.366.445.993.667 1.882.667zM34.719 26h-2.256l-4.41-7.669V26h-2.101V15.204h2.365l4.3 7.537v-7.537h2.102V26z" fill="#fff"/></svg>