<svg fill="none" height="27" width="271" xmlns="http://www.w3.org/2000/svg"><path d="M56.94 6.117c-1.704 0-3.476.449-5.669 1.583l1.218 2.91c1.904-1.028 3.476-1.477 4.629-1.477 1.307 0 1.882.47 1.882 1.092v.042c0 .428-.354.664-1.218.749l-1.505.149c-3.765.384-5.316 1.968-5.316 4.15v.149c0 2.075 1.771 3.702 4.275 3.702 1.647 0 3.08-.672 3.95-1.86l.28 1.645h3.41v-7.466c0-3.53-2.104-5.37-5.935-5.37m-.333 10.204c-1.263 0-1.86-.47-1.86-1.198v-.043c0-.641.376-1.112 1.75-1.305l.597-.086c.874-.118 1.412-.273 1.905-.562v.947c0 1.433-.93 2.246-2.392 2.246" fill="#fff"/><path d="M24.87 6.203L20.507 1.99l-4.363 4.214L18.315 8.3 7.375 18.87l4.363 4.215L16.1 18.87l-2.17-2.097z" fill="#fa582d"/><path d="M11.784 1.989L.844 12.557l4.362 4.215 10.94-10.569zM27.041 8.3l-10.94 10.57 4.363 4.213 10.94-10.568z" fill="#fa582d"/><g fill="#fff"><path d="M68.965 1.838H65.09v17.116h3.875zM44.449 6.117c-1.762 0-3.176.754-3.957 1.933l-.296-1.718h-3.41v16.902h3.875v-5.859c.737 1.099 2.134 1.794 3.786 1.794 3.101 0 5.626-2.653 5.626-6.312v-.428c0-3.658-2.525-6.312-5.626-6.312m1.638 6.632c0 1.926-1.04 3.316-2.768 3.316-1.727 0-2.768-1.391-2.768-3.316v-.214c0-1.926 1.04-3.315 2.768-3.315 1.728 0 2.768 1.39 2.768 3.315zm75.169-6.632c-3.964 0-6.754 2.653-6.754 6.312v.428c0 3.658 2.791 6.312 6.754 6.312 3.964 0 6.755-2.653 6.755-6.312v-.428c0-3.658-2.791-6.312-6.755-6.312zm2.769 6.632c0 1.926-1.041 3.316-2.769 3.316-1.727 0-2.768-1.391-2.768-3.316v-.214c0-1.926 1.041-3.315 2.768-3.315 1.728 0 2.769 1.39 2.769 3.315zm7.636-5.862v-.064c0-.364-.288-.62-.797-.62h-.885V8.17h.42v-.664h.467l.352.664h.465l-.433-.779c.264-.076.411-.266.411-.505zm-1.263-.321h.464c.266 0 .377.086.377.278v.022c0 .17-.111.277-.377.277h-.464z"/><path d="M130.776 5.154c-1.196 0-2.104.877-2.104 2.033s.908 2.033 2.104 2.033c1.197 0 2.104-.877 2.104-2.033s-.907-2.033-2.104-2.033zm0 3.787c-1.041 0-1.794-.728-1.794-1.754s.753-1.754 1.794-1.754 1.794.728 1.794 1.754-.753 1.754-1.794 1.754zm-27.682-7.103h-3.875v17.116h3.875zm7.641 14.228c-1.13 0-1.551-.535-1.551-1.69V9.22h4.563V6.332h-4.563V3.444l-3.875.557v10.74c0 2.931 1.55 4.429 4.65 4.429 1.373 0 2.989-.406 4.319-1.134l-1.108-2.652c-.774.406-1.86.684-2.435.684m-19.669-9.95c-1.705 0-3.477.448-5.67 1.582l1.218 2.91c1.904-1.027 3.476-1.476 4.629-1.476 1.307 0 1.882.47 1.882 1.091v.043c0 .428-.354.663-1.218.748l-1.505.15c-3.765.384-5.316 1.968-5.316 4.15v.149c0 2.075 1.771 3.701 4.275 3.701 1.647 0 3.08-.671 3.95-1.857l.28 1.644H97v-7.466c0-3.53-2.104-5.37-5.935-5.37m-.333 10.204c-1.263 0-1.86-.47-1.86-1.198v-.043c0-.641.376-1.112 1.75-1.305l.597-.086c.874-.118 1.412-.274 1.905-.562v.946c0 1.434-.93 2.247-2.392 2.247M77.45 6.117c-3.965 0-6.755 2.653-6.755 6.312v.428c0 3.658 2.791 6.312 6.755 6.312 3.963 0 6.754-2.653 6.754-6.312v-.428c0-3.658-2.791-6.312-6.754-6.312zm2.768 6.632c0 1.926-1.04 3.316-2.768 3.316-1.728 0-2.769-1.391-2.769-3.316v-.214c0-1.926 1.041-3.315 2.769-3.315 1.727 0 2.768 1.39 2.768 3.315zm13.095 9.241h.992l1.37 1.746h.015V21.99h.91v3.08h-.961l-1.402-1.791h-.014v1.79h-.91zm4.496 0h2.788l.037.748h-1.872v.42h1.469v.683h-1.47v.48h1.926l-.036.747h-2.842zm4.819.791h-1.116l.037-.792h3.119l.037.792h-1.116v2.288h-.961zm2.845-.791h1.021l.518 2.137h.051l.674-2.138h.933l.66 2.138h.051l.51-2.138h.974l-.838 3.08h-1.252l-.584-1.857h-.027l-.591 1.856h-1.258zm6.093 1.54c0-1.003.707-1.633 1.821-1.633 1.115 0 1.823.63 1.823 1.632s-.707 1.632-1.823 1.632c-1.115 0-1.821-.629-1.821-1.632zm2.692 0c0-.533-.318-.85-.869-.85s-.87.317-.87.85.319.849.866.849c.546 0 .875-.318.875-.85m1.986-1.539h1.858c.847 0 1.262.386 1.262 1.103 0 .493-.21.828-.619.986l.756.99h-1.083l-.588-.809h-.629v.81h-.955v-3.08zm1.735 1.548c.318 0 .433-.171.433-.405s-.113-.401-.433-.401h-.779v.806zm2.624-1.548h.958v1.135h.391l.934-1.136h1.075l.004.004-1.221 1.474 1.289 1.597-.004.004h-1.116l-.966-1.183h-.386v1.183h-.958zm4.165 2.876v-.845h.004c.532.26 1.052.387 1.502.387.342 0 .514-.08.514-.234s-.113-.194-.797-.3c-.746-.113-1.243-.33-1.243-.95 0-.576.524-1.02 1.549-1.02.409 0 .838.083 1.235.245v.836l-.004.004a2.876 2.876 0 00-1.299-.343c-.364 0-.51.083-.51.224 0 .181.224.199.783.29.747.124 1.244.326 1.244.977 0 .506-.393 1.012-1.517 1.012-.555 0-.997-.109-1.461-.286M141.491.384h-.354v26.23h.354z"/></g><path d="M158.254 12.284l3.331-5.642 3.38-.01V2l-6.021.029L153 12.303l6.031 10.246 5.934-.029v-4.479h-3.331z" fill="#ffcb06"/><path d="M171.695 12.284l-3.341 5.757h-3.389V6.633h3.35z" fill="#ffcb06"/><path d="M184.779 11.15c-2.69-.394-3.283-.692-3.283-1.288 0-.596.758-1.095 2.555-1.095 1.408 0 2.865.346 4.147.865.33.124.631.269.932.403V7.421a.464.464 0 00-.068-.029c-1.408-.596-2.904-.913-4.866-.913-3.506 0-5.817 1.547-5.817 3.527 0 2.201 1.874 2.98 5.565 3.499 2.593.365 3.234.644 3.234 1.288 0 .72-.952 1.192-3.059 1.192-1.36 0-2.972-.375-4.361-.923a13.86 13.86 0 01-1.165-.538v2.614c.106.048.223.096.301.125 1.563.625 3.341 1.01 5.37 1.01 3.409 0 6.041-1.366 6.041-3.605.01-2.201-1.748-2.99-5.526-3.518zm28.009 6.9h-2.991V6.71h7.497c3.147 0 4.818 1.374 4.818 3.71 0 1.835-1.224 3.046-3.011 3.527l3.574 4.104h-3.419l-3.321-3.883h-3.147zm0-6.083h3.788c1.67 0 2.515-.49 2.515-1.5 0-.951-.689-1.48-2.37-1.48h-3.923v2.98zm23.336 4.056h-6.575l-1.01 2.028h-3.117l5.827-11.409h3.263l5.866 11.409h-3.234zm-5.535-2.076h4.506l-2.234-4.508h-.039zm35.08 2.076h-6.575l-1.01 2.028h-3.107l5.827-11.408h3.263l5.847 11.408h-3.235zm-5.535-2.076h4.506l-2.234-4.508h-.039zm8.468-7.257h.951v.24h-.32v.943h-.301V6.93h-.33zm2.398 0v1.183h-.272V7.16l-.271.529c-.01.02-.03.038-.049.048s-.039.02-.058.02h-.039c-.02 0-.049-.01-.058-.02-.02-.01-.03-.029-.049-.048l-.272-.529v.713h-.272V6.69h.253c.009 0 .019 0 .029.01.01 0 .019.01.019.02.01.009.01.018.02.028l.301.586c.009.02.019.039.029.068 0 .01.01.019.01.029.009-.01.009-.02.019-.039s.019-.048.029-.067l.301-.577c.01-.01.01-.02.02-.029.009-.01.019-.01.029-.019.009 0 .019 0 .029-.01zm-29.621 2.413h4.827v8.938h3.205V9.103h4.836V6.652h-12.868zm-48.426 0h4.837v8.938h3.205V9.103h4.836V6.652h-12.878z" fill="#fff"/></svg>