<svg fill="none" height="359" width="1728" xmlns="http://www.w3.org/2000/svg" xmlns:xlink="http://www.w3.org/1999/xlink"><linearGradient id="a"><stop offset="0" stop-color="#ecb22e"/><stop offset="1" stop-color="#ecb22e" stop-opacity="0"/></linearGradient><radialGradient id="d" cx="0" cy="0" gradientTransform="matrix(0 705.5 -881.5 0 -136.5 -379.5)" gradientUnits="userSpaceOnUse" r="1" xlink:href="#a"/><radialGradient id="e" cx="0" cy="0" gradientTransform="matrix(0 705.5 -881.5 0 2027.5 -289.5)" gradientUnits="userSpaceOnUse" r="1" xlink:href="#a"/><clipPath id="b"><path d="M0 0h1728v359H0z"/></clipPath><clipPath id="c"><path d="M0 0h1728v1117H0z"/></clipPath><g clip-path="url(#b)"><g clip-path="url(#c)"><path d="M-1018-1085H745V326h-1763z" fill="url(#d)" opacity=".4"/><path d="M1146-995h1763V416H1146z" fill="url(#e)" opacity=".4"/><g fill="#ffcb06"><g opacity=".12"><path d="M68.812-708.661h-6.177v925.73h6.177zm-37.013 0h-6.177v925.73H31.8zM309.433-19.194l18.507 31.267v-465.669l-18.507 31.267zm-37.015 64.237l18.507 31.267v-592.259l-18.507 31.267zm-37.015.001L253.91 76.31v-637.446l-18.507 31.267zm-37.015 0l18.508 31.267v-637.446l-18.508 31.267zm-37.015 0l18.508 31.267v-637.446l-18.508 31.267zm-37.037 0l18.507 31.267v-637.446l-18.507 31.267zm-37.016 0l18.508 31.267v-637.446l-18.507 31.267z"/><path d="M50.306 78.263l18.507-31.29V319l-18.507-31.267zm-37.015 0L31.8 46.973V319l-18.51-31.267z"/></g><g opacity=".12"><path d="M1730.67-668.661h-6.18v925.73h6.18z"/><path d="M1712.16-147.133l18.51-31.267V359l-18.51-31.267zm-37.03 419.734l18.5 31.267V-720.864l-18.5 31.29zm-37.02-63.602l18.51 31.268v-896.235l-18.51 31.29zm-37.01-63.261l18.5 31.268v-768.464l-18.5 31.267zm-37.02-63.647l18.51 31.268v-639.808l-18.51 31.267zm-37.01-63.646l18.5 31.267v-511.833l-18.5 31.268z"/></g></g></g></g></svg>