<?xml version="1.0" encoding="UTF-8"?>
<svg xmlns="http://www.w3.org/2000/svg" version="1.1" viewBox="0 0 80 80">
  <!-- Generator: Adobe Illustrator 28.7.7, SVG Export Plug-In . SVG Version: 1.2.0 Build 194)  -->
  <defs>
    <style>
      .cls-1 {
        fill: #ffffff;
        fill-rule: evenodd;
      }
    </style>
  </defs>
  <g>
    <g id="Layer_1">
      <g>
        <path class="cls-1" d="M76.3,53.3l-2.1,2.7c-1.5-1.3-3.5-2.1-5.6-2.1-4.7,0-8.5,3.8-8.5,8.5s3.8,8.5,8.5,8.5,8.5-3.8,8.5-8.5-.7-3.8-1.8-5.2l2.2-2.8-1.2-1ZM75.5,62.4c0,3.8-3.1,6.9-6.9,6.9s-6.9-3.1-6.9-6.9,3.1-6.9,6.9-6.9,3.4.7,4.6,1.8l-5.3,6.7-3.1-3.1-1.1,1.1,4.4,4.4,6.2-7.9c.8,1.1,1.2,2.5,1.2,3.9Z"/>
        <path class="cls-1" d="M68.5,27.6c0,0,0,.1,0,.2v.4c0,.2.2.4.4.4s.4-.2.4-.4v-.4c0-.1,0-.2,0-.3,4.5-.3,8-4,8-8.5s-.7-3.8-1.8-5.2l2.2-2.9-1.2-1-2.1,2.7c-1.5-1.3-3.5-2.1-5.6-2.1-4.7,0-8.5,3.8-8.5,8.5s3.8,8.4,8.5,8.5ZM68.6,12.2c1.8,0,3.4.7,4.7,1.8l-5.3,6.7-3.1-3.2-1.1,1.1,4.4,4.4,6.2-7.9c.8,1.1,1.2,2.5,1.2,3.9,0,3.8-3.1,6.9-6.9,6.9s-6.9-3.1-6.9-6.9,3.1-6.9,6.9-6.9Z"/>
        <path class="cls-1" d="M18.8,53.3l-2.1,2.7c-1.5-1.3-3.5-2.1-5.6-2.1-4.7,0-8.5,3.8-8.5,8.5s3.8,8.5,8.5,8.5,8.5-3.8,8.5-8.5-.7-3.7-1.8-5.2l2.2-2.9-1.3-1ZM18,62.4c0,3.8-3.1,6.9-6.9,6.9s-6.9-3.1-6.9-6.9,3.1-6.9,6.9-6.9,3.4.7,4.7,1.8l-5.2,6.7-3.2-3.1-1.1,1.1,4.5,4.4,6.2-7.8c.8,1.1,1.2,2.4,1.2,3.9Z"/>
        <path class="cls-1" d="M11,27.6c0,0,0,.1,0,.2v.4c0,.2.2.4.4.4s.4-.2.4-.4v-.4c0-.1,0-.2,0-.3,4.4-.3,7.9-4,7.9-8.5s-.7-3.7-1.8-5.1l2.2-2.9-1.3-1-2.1,2.6c-1.5-1.3-3.5-2.2-5.7-2.2-4.7,0-8.5,3.8-8.5,8.6s3.8,8.5,8.5,8.5ZM11,12.2c1.8,0,3.4.7,4.7,1.9l-5.2,6.7-3.2-3.2-1.1,1.1,4.5,4.4,6.1-7.9c.8,1.1,1.2,2.5,1.2,3.9,0,3.8-3.1,6.9-6.9,6.9s-6.9-3.1-6.9-6.9,3.1-7,6.9-7Z"/>
        <path class="cls-1" d="M11.4,31.3c.2,0,.4-.2.4-.4v-.6c0-.2-.2-.4-.4-.4s-.4.2-.4.4v.6c0,.2.2.4.4.4Z"/>
        <path class="cls-1" d="M11,33.5c0,.2.2.4.4.4s.4-.2.4-.4v-.6c0-.2-.2-.4-.4-.4s-.4.2-.4.4v.6Z"/>
        <path class="cls-1" d="M11.8,35.4c0-.2-.2-.4-.4-.4s-.4.2-.4.4v.4c0,.2.2.4.4.4h.4c.2,0,.4-.2.4-.4s-.2-.4-.4-.4Z"/>
        <path class="cls-1" d="M24.9,35.8c0-.2-.2-.4-.4-.4h-.8c-.2,0-.4.2-.4.4s.2.4.4.4h.8c.2,0,.4-.2.4-.4Z"/>
        <path class="cls-1" d="M18.5,35.8c0-.2-.2-.4-.4-.4h-.8c-.2,0-.4.2-.4.4s.2.4.4.4h.8c.2,0,.4-.2.4-.4Z"/>
        <path class="cls-1" d="M21.3,35.4h-.8c-.2,0-.4.2-.4.4s.2.4.4.4h.8c.2,0,.4-.2.4-.4s-.2-.4-.4-.4Z"/>
        <path class="cls-1" d="M15.4,35.8c0-.2-.2-.4-.4-.4h-.8c-.2,0-.4.2-.4.4s.2.4.4.4h.8c.2,0,.4-.2.4-.4Z"/>
        <path class="cls-1" d="M26.9,36.2h.4c.2,0,.4-.2.4-.4s-.2-.4-.4-.4h-.4c-.2,0-.4.2-.4.4s.2.4.4.4Z"/>
        <path class="cls-1" d="M11.8,48.1c0-.2-.2-.4-.4-.4s-.4.2-.4.4v.8c0,.2.2.4.4.4s.4-.2.4-.4v-.8Z"/>
        <path class="cls-1" d="M11,51.3v.8c0,.2.2.4.4.4s.4-.2.4-.4v-.8c0-.2-.2-.4-.4-.4s-.4.2-.4.4Z"/>
        <path class="cls-1" d="M12.2,45.3c0-.2-.2-.4-.4-.4h-.4c-.2,0-.4.2-.4.4v.4c0,.2.2.4.4.4s.4-.2.4-.4c.2,0,.4-.2.4-.4Z"/>
        <path class="cls-1" d="M16.5,44.9c-.2,0-.4.2-.4.4s.2.4.4.4h.7c.2,0,.4-.2.4-.4s-.2-.4-.4-.4h-.7Z"/>
        <path class="cls-1" d="M20.1,44.9h-.7c-.2,0-.4.2-.4.4s.2.4.4.4h.7c.2,0,.4-.2.4-.4s-.2-.4-.4-.4Z"/>
        <path class="cls-1" d="M13.8,44.9c-.2,0-.4.2-.4.4s.2.4.4.4h.7c.2,0,.4-.2.4-.4s-.2-.4-.4-.4h-.7Z"/>
        <path class="cls-1" d="M22.5,44.9h-.4c-.2,0-.4.2-.4.4s.2.4.4.4h.4c.2,0,.4-.2.4-.4s-.2-.4-.4-.4Z"/>
        <path class="cls-1" d="M69.2,30.2c0-.2-.2-.4-.4-.4s-.4.2-.4.4v.6c0,.2.2.4.4.4s.4-.2.4-.4v-.6Z"/>
        <path class="cls-1" d="M69.2,32.9c0-.2-.2-.4-.4-.4s-.4.2-.4.4v.6c0,.2.2.4.4.4s.4-.2.4-.4v-.6Z"/>
        <path class="cls-1" d="M69.2,35.4c0-.2-.2-.4-.4-.4s-.4.2-.4.4c-.2,0-.4.2-.4.4s.2.4.4.4h.4c.2,0,.4-.2.4-.4v-.4Z"/>
        <path class="cls-1" d="M65.8,36.2c.2,0,.4-.2.4-.4s-.2-.4-.4-.4h-.9c-.2,0-.4.2-.4.4s.2.4.4.4h.9Z"/>
        <path class="cls-1" d="M62.7,35.8c0-.2-.2-.4-.4-.4h-.9c-.2,0-.4.2-.4.4s.2.4.4.4h.9c.2,0,.4-.2.4-.4Z"/>
        <path class="cls-1" d="M58,35.8c0,.2.2.4.4.4h.4c.2,0,.4-.2.4-.4s-.2-.4-.4-.4h-.4c-.2,0-.4.2-.4.4Z"/>
        <path class="cls-1" d="M69.2,48.1c0-.2-.2-.4-.4-.4s-.4.2-.4.4v.8c0,.2.2.4.4.4s.4-.2.4-.4v-.8Z"/>
        <path class="cls-1" d="M68.4,51.3v.8c0,.2.2.4.4.4s.4-.2.4-.4v-.8c0-.2-.2-.4-.4-.4s-.4.2-.4.4Z"/>
        <path class="cls-1" d="M69.2,45.3c0-.2-.2-.4-.4-.4h-.4c-.2,0-.4.2-.4.4s.2.4.4.4c0,.2.2.4.4.4s.4-.2.4-.4v-.4Z"/>
        <path class="cls-1" d="M65.1,45.7h.8c.2,0,.4-.2.4-.4s-.2-.4-.4-.4h-.8c-.2,0-.4.2-.4.4s.2.4.4.4Z"/>
        <path class="cls-1" d="M59.2,44.9h-.8c-.2,0-.4.2-.4.4s.2.4.4.4h.8c.2,0,.4-.2.4-.4s-.2-.4-.4-.4Z"/>
        <path class="cls-1" d="M55.9,44.9h-.8c-.2,0-.4.2-.4.4s.2.4.4.4h.8c.2,0,.4-.2.4-.4s-.2-.4-.4-.4Z"/>
        <path class="cls-1" d="M61.8,45.7h.8c.2,0,.4-.2.4-.4s-.2-.4-.4-.4h-.8c-.2,0-.4.2-.4.4s.2.4.4.4Z"/>
        <path class="cls-1" d="M52.6,44.9h-.8c-.2,0-.4.2-.4.4s.2.4.4.4h.8c.2,0,.4-.2.4-.4s-.2-.4-.4-.4Z"/>
        <path class="cls-1" d="M49.3,44.9h-.4c-.2,0-.4.2-.4.4s.2.4.4.4h.4c.2,0,.4-.2.4-.4s-.2-.4-.4-.4Z"/>
        <path class="cls-1" d="M47.6,47.3l-.2-2.9-1.4-.5c-.2-.4-.3-.9-.5-1.3l.7-1.3-1.7-2.3-1.4.3c-.3-.3-.6-.6-1-.9v-1.4l-2.6-1.3-1.1,1c-.5,0-.9-.2-1.4-.2l-.7-1.3-2.9.2-.5,1.4c-.5.2-.9.3-1.3.5l-1.3-.7-2.3,1.7.2,1.5c-.3.3-.6.6-.9,1h-1.4l-1.3,2.5,1,1c0,.4-.2.8-.2,1.3l-1.3.7.2,2.9,1.4.5c.2.5.3.9.5,1.3l-.9,1.3,1.7,2.4,1.4-.3c.3.3.6.6,1,.9v1.5l2.6,1.2,1.1-1c.5,0,.9.2,1.4.2l.7,1.3,3-.4.5-1.4c.5-.2.9-.3,1.3-.5l1.3.8,2.3-1.6-.3-1.4c.3-.3.6-.6.9-1h1.5l1.2-2.5-1-1c0-.5.2-.9.2-1.3l1.3-.7ZM45,50.6l-.3.7h-1.3l-.2.4c-.3.5-.7,1-1.2,1.4l-.3.3.2,1.2-.6.5-1.1-.6-.5.2c-.6.2-1.1.5-1.8.6h-.4c0,0-.4,1.3-.4,1.3h-.8c0,0-.6-1-.6-1h-.4c-.6,0-1.2-.2-1.8-.3l-.4-.2-1,.8-.7-.3v-1.3l-.3-.2c-.5-.3-1-.7-1.4-1.2l-.3-.3-1.3.2-.4-.6.8-1.1-.2-.4c-.2-.6-.5-1.1-.6-1.7v-.4c0,0-1.4-.4-1.4-.4v-.8c0,0,1.1-.7,1.1-.7v-.4c0-.6.2-1.2.3-1.8l.2-.4-1-1,.3-.7h1.4l.2-.3c.3-.5.7-1,1.2-1.4l.3-.3-.2-1.3.6-.5,1.1.6.4-.2c.6-.2,1.1-.5,1.8-.6h.4c0,0,.4-1.3.4-1.3h.8c0,0,.6,1.1.6,1.1h.5c.6,0,1.2.2,1.8.3l.4.2,1-.9.7.3v1.3l.4.2c.5.3,1,.7,1.4,1.2l.3.3,1.3-.2.5.6-.6,1.1.2.4c.2.6.5,1.1.6,1.7v.4c0,0,1.3.4,1.3.4v.8c0,0-1,.6-1,.6v.5c0,.6-.2,1.2-.3,1.8l-.2.4.8,1Z"/>
        <path class="cls-1" d="M31.4,46.9c0-.2,0-.4,0-.6,0-.2,0-.5-.3-.5-.2,0-.5,0-.5.3,0,.2,0,.5,0,.8s.2.4.4.4.3-.2.4-.4Z"/>
        <path class="cls-1" d="M34.9,41.8c-.2,0-.6,0-.8.2-.2,0-.3.2-.2.5,0,.2.2.2.4.2s0,0,.2,0c.2,0,.4-.2.6-.2.2,0,.3-.2.3-.5,0-.2-.2-.3-.5-.3Z"/>
        <path class="cls-1" d="M32.1,43.3c-.2.2-.4.4-.6.6-.2.2,0,.4,0,.6,0,0,.2,0,.2,0s.2,0,.3-.2c.2-.2.3-.4.5-.6.2-.2.2-.4,0-.6-.2-.2-.4-.2-.6,0Z"/>
        <path class="cls-1" d="M37.1,51.1c-.2,0-.4.2-.6.2-.2,0-.3.2-.3.5s.2.3.4.3c.3,0,.6,0,.8-.2.2,0,.3-.2.2-.5,0-.2-.2-.3-.5-.2Z"/>
        <path class="cls-1" d="M34.4,51.1c-.2,0-.4-.2-.6-.2-.2,0-.5,0-.6.2,0,.2,0,.5.2.6.3.2.6.2.8.3h.2c.2,0,.3-.2.3-.3,0-.2,0-.4-.2-.5Z"/>
        <path class="cls-1" d="M38.2,42.3c-.3-.2-.6-.2-.8-.3-.2,0-.4,0-.5.2,0,.2,0,.4.2.5.2,0,.4.2.6.2,0,0,0,0,.2,0,.2,0,.3,0,.4-.2,0-.2,0-.5-.2-.6Z"/>
        <path class="cls-1" d="M31.9,48.9c-.2-.2-.4-.2-.6-.2-.2.2-.2.4-.2.6,0,.2.2.5.4.7,0,0,.2.2.3.2s.2,0,.3-.2c.2-.2.2-.4,0-.6-.2-.2-.3-.3-.4-.6Z"/>
        <path class="cls-1" d="M40.6,46.4c-.2,0-.4.2-.4.4s0,.5,0,.7,0,.5.4.5.4,0,.4-.4c0-.2,0-.5,0-.8s-.2-.4-.4-.4Z"/>
        <path class="cls-1" d="M40.4,44.5c0-.2-.2-.5-.4-.7-.2-.2-.4-.2-.6,0-.2.2-.2.4,0,.6.2.2.3.3.4.6,0,.2.2.2.3.2h.2c.2-.2.2-.4.2-.6Z"/>
        <path class="cls-1" d="M39.4,49.5c-.2.2-.3.4-.5.6-.2.2-.2.4,0,.6,0,0,.2,0,.3,0s.2,0,.2,0c.2-.2.4-.4.6-.6.2-.2,0-.4,0-.6-.2-.2-.4,0-.6,0Z"/>
        <path class="cls-1" d="M57.2,32.4c0-.2.2-.6.2-.9l1-.6-.2-2.5-1.1-.4c0-.3-.2-.6-.3-1l.8-1-1.4-2.1-1.2.2c-.2-.2-.5-.5-.7-.6v-1.2l-2.2-1-1,.8c-.3,0-.6-.2-1-.2l-.6-1.1-2.5.2-.4,1.1c-.3,0-.6.2-1,.3l-1-.6-2.1,1.4.2,1.2c-.2.2-.5.5-.6.7h-1.2l-1,2.2.8,1c0,.2-.2.6-.2.9l-1,.6.2,2.5,1.1.4c0,.3.2.6.3,1l-.6,1,1.4,2.1,1.2-.2c.2.2.5.5.7.6v1.2l2.2,1,1-.8c.2,0,.6.2.9.2l.6,1,2.4-.3.4-1.1c.3,0,.6-.2,1-.3l1,.6,2.1-1.4-.2-1.2c.2-.2.5-.5.6-.7h1.2l1.1-2.1-.8-1ZM56.8,30.3l-.9.5v.4c0,.5,0,1-.2,1.4l-.2.4.6.8-.2.3h-1.2l-.2.3c-.2.4-.6.8-1,1.1l-.3.3.2,1-.3.2-.9-.6-.4.2c-.5.2-1,.3-1.4.5h-.4c0,0-.3,1-.3,1h-.4l-.5-1h-.5c-.5,0-1,0-1.4-.2h-.4c0,0-.7.6-.7.6l-.4-.2v-1l-.3-.2c-.4-.2-.8-.6-1.1-1l-.3-.3-1,.2-.2-.3.4-1.1-.2-.4c-.2-.5-.4-1-.5-1.4v-.4c0,0-1-.3-1-.3v-.4l.9-.5v-.4c0-.5,0-1,.2-1.4l.2-.4-.7-.8.2-.4h1l.2-.3c.2-.4.6-.8,1-1.1l.3-.3-.2-1,.3-.2.9.6.4-.2c.5-.2,1-.4,1.4-.5h.4c0,0,.3-1,.3-1h.4l.5.9h.5c.5,0,1,0,1.5.3h.4c0,0,.8-.6.8-.6l.4.2v1l.3.2c.4.2.8.6,1.1,1l.3.3,1.2.2.2.3-.6.9.2.4c.2.5.4,1,.5,1.4v.4c0,0,1,.3,1,.3v.4Z"/>
        <path class="cls-1" d="M52.9,30c-.2,0-.4.2-.4.4s0,.5,0,.7c0,.2,0,.4.4.5.2,0,.3-.2.4-.2,0-.3,0-.6,0-.9h-.4c0,0,.4,0,.4,0,0-.2-.2-.4-.4-.4Z"/>
        <path class="cls-1" d="M45.4,30.4c0-.2,0-.4,0-.6,0-.2,0-.4-.3-.5-.2,0-.4,0-.5.3,0,.2,0,.5,0,.8s.2.4.4.4.4-.2.4-.4Z"/>
        <path class="cls-1" d="M52.5,27.9c-.2-.2-.3-.5-.6-.6-.2-.2-.4-.2-.6,0-.2.2-.2.4,0,.6.2.2.3.4.5.6,0,0,.2.2.3.2s.2,0,.2,0c.2-.2.2-.4,0-.6Z"/>
        <path class="cls-1" d="M46.5,26.9c-.2.2-.5.3-.6.6-.2.2-.2.4,0,.6,0,0,.2,0,.3,0s.2,0,.2,0c.2-.2.4-.3.6-.5.2-.2.2-.4,0-.6-.2-.2-.4-.2-.6,0Z"/>
        <path class="cls-1" d="M46.3,32.9c-.2-.2-.2-.4-.4-.6-.2-.2-.4-.2-.6,0-.2.2-.2.4,0,.6.2.2.4.5.6.6,0,0,.2,0,.3,0s.2,0,.2,0c.2-.2.2-.4,0-.6Z"/>
        <path class="cls-1" d="M48.9,33.9c-.2,0-.4,0-.6,0-.2,0-.5,0-.5.3s0,.4.3.5c.2,0,.5,0,.8,0s.4-.2.4-.4-.2-.4-.4-.4Z"/>
        <path class="cls-1" d="M49.7,26.2c-.2,0-.6,0-.8,0s-.4.2-.4.4.2.4.4.4.4,0,.7,0c.2,0,.3-.2.4-.3,0-.2,0-.4-.3-.5Z"/>
        <path class="cls-1" d="M51.4,32.9c-.2.2-.4.2-.6.4-.2.2-.2.4,0,.6,0,0,.2.2.3.2h.2c.2-.2.5-.3.6-.6.2-.2.2-.4,0-.6-.2-.2-.4-.2-.6,0Z"/>
      </g>
    </g>
  </g>
</svg>
