<?xml version="1.0" encoding="UTF-8"?>
<svg xmlns="http://www.w3.org/2000/svg" version="1.1" viewBox="0 0 80 80">
  <defs>
    <style>
      .cls-1 {
        fill: #ffffff;
        fill-rule: evenodd;
      }
    </style>
  </defs>
  <!-- Generator: Adobe Illustrator 28.7.7, SVG Export Plug-In . SVG Version: 1.2.0 Build 194)  -->
  <g>
    <g id="Layer_1">
      <g>
        <path class="cls-1" d="M22.5,35.5l-.7-.9c-3.8,2.5-5,7.4-2.8,11.4l1-.5c-1.9-3.5-.8-7.7,2.5-10Z"/>
        <path class="cls-1" d="M21.7,39.6l-1-.3c-.3.8-.4,1.6-.4,2.5,0,2.2.9,4.3,2.4,5.8l.8-.8c-1.3-1.3-2.1-3.2-2.1-5s.1-1.4.3-2.2Z"/>
        <path class="cls-1" d="M23.8,31.6c-5,0-9,4-9,9s4,9,9,9,9-4,9-9-4-9-9-9ZM23.8,48.7c-4.4,0-8-3.6-8-8s3.6-8,8-8,8,3.6,8,8-3.6,8-8,8Z"/>
        <path class="cls-1" d="M62.1,29.4l-8-4c-1.7-.9-3.8-1.1-5.8-.8-2.4.5-4.5,1.9-5.9,3.9-1.2,1.7-1.6,3.6-1.6,5.5-.3-.1-.6-.2-.8-.2s-.6.1-1,.3c0-2-.5-4-1.7-5.6-1.4-2-3.5-3.3-5.9-3.7-1.9-.3-3.8-.1-5.6.8l-7.8,4c-6.1,3.1-8.6,10.7-5.4,16.8,1.5,2.9,4.1,5.2,7.3,6.2,1.2.4,2.5.7,3.8.7,2,0,3.9-.4,5.7-1.4,2.5-1.3,4.6-3.5,5.8-6.2l1.9-5.1c.7.6,1.6,1,2.6,1s.2,0,.3-.1c1.1,0,2.1-.4,2.8-1.1l1.9,5.1c1.2,2.6,3.2,4.8,5.8,6.1,1.7,1,3.7,1.4,5.7,1.4s2.6-.2,4-.5c3.2-1.1,5.8-3.3,7.3-6.2,1.5-3.1,1.7-6.4.8-9.6-1-3.2-3.3-5.8-6.2-7.3ZM33.3,44.7c-1,2.2-2.7,3.9-4.8,5-2.4,1.3-5.2,1.5-7.8.7-2.6-.9-4.7-2.6-6-5.1-2.6-5-.5-11.2,4.5-13.8l7.8-3.9c1-.4,2-.7,3-.7h1.3c3.7.7,6.2,4.3,5.7,8l-3.7,9.9ZM40.1,39.4h-.2c-.8.1-1.5-.5-1.6-1.3,0-.1.1-.3.1-.4.5-.7,1.3-1.3,1.6-1.5.3.1,1,.8,1.5,1.4.1.1.2.3.2.5-.1.8-.9,1.4-1.6,1.3ZM65.3,45.3c-2.5,5-8.8,7.1-13.8,4.5-2.1-1.1-3.7-2.8-4.7-5l-3.7-9.8c-.7-3.8,1.7-7.4,5.6-8,1.4-.3,3-.1,4.4.5l7.8,3.9c2.5,1.2,4.2,3.4,5.1,6,.9,2.6.7,5.3-.7,7.8Z"/>
        <path class="cls-1" d="M56.2,31.4c-5,0-9,4-9,9s4,9,9,9,9-4,9-9-4-9-9-9ZM56.2,48.4c-4.4,0-8-3.6-8-8s3.6-8,8-8,8,3.6,8,8-3.6,8-8,8Z"/>
        <path class="cls-1" d="M51,39.2c.2-1.1.7-2.2,1.4-3.1l-.9-.7c-.8,1-1.4,2.2-1.6,3.5-.5,2.6.3,5.3,2.2,7.2l.8-.8c-1.6-1.6-2.3-3.9-1.9-6.2Z"/>
        <path class="cls-1" d="M51.9,39.1c-.2.9-.2,1.6-.1,2.4l1.1-.2c0-.7,0-1.3.1-2,.3-1.6,1.3-3.2,2.7-4l-.7-.9c-1.6,1.1-2.8,2.7-3.2,4.7Z"/>
        <path class="cls-1" d="M61.2,13.2c.1.1.2.1.3.1s.3-.1.4-.2c.2-.2.1-.5-.1-.8-.3-.2-.5-.4-.9-.7-.2-.2-.5-.1-.8.1-.2.2-.1.5.1.8.3.2.5.4.9.7Z"/>
        <path class="cls-1" d="M71.6,26.5c.1.2.3.3.5.3s.2,0,.1-.1c.3-.2.4-.4.3-.8-.1-.3-.3-.7-.4-1-.2-.2-.5-.3-.8-.2-.2.2-.3.5-.2.8.1.3.3.7.4,1Z"/>
        <path class="cls-1" d="M64.3,16.1c.1.1.3.1.4.1s.3-.1.3-.1c.2-.2.2-.5,0-.8-.2-.2-.5-.5-.8-.8-.2-.2-.5-.2-.8,0-.2.2-.2.5,0,.8.2.2.5.5.8.8Z"/>
        <path class="cls-1" d="M67.3,19.2c.1.1.3.2.4.2s.2-.1.3-.1c.2-.2.3-.5.1-.8-.2-.3-.4-.5-.7-.9s-.5-.3-.8-.1c-.3.2-.3.5-.1.8.2.3.4.5.7.9Z"/>
        <path class="cls-1" d="M73.9,33.6c.1.4.1.8.2,1.1,0,.2.3.4.5.4.4,0,.7-.3.5-.7-.1-.3-.1-.8-.2-1.1-.1-.3-.3-.5-.7-.4-.3.1-.5.3-.4.7Z"/>
        <path class="cls-1" d="M73.2,30.4c.1.3.3.4.5.4h.1c.2-.1.4-.3.3-.7-.1-.4-.2-.8-.3-1.1-.1-.2-.3-.4-.7-.3-.2.1-.4.3-.3.7.1.3.2.7.3,1Z"/>
        <path class="cls-1" d="M56.6,10.3c.3.2.7.3,1,.5.1.1.2.1.3.1s.3-.1.4-.3c.1-.3,0-.7-.2-.8-.3-.2-.7-.3-1-.5-.3-.1-.7,0-.8.2-.1.3,0,.7.2.8Z"/>
        <path class="cls-1" d="M75.2,41.7c-.3,0-.5.2-.5.5-.1.3-.1.8-.1,1.1s.2.5.5.5.5-.2.5-.5c.1-.3.1-.8.1-1.1s-.2-.5-.5-.5Z"/>
        <path class="cls-1" d="M44,5.8c-.1.3.1.7.4.7s.8,0,1.2.1c.3,0,.5-.2.5-.4.1-.3-.1-.7-.4-.7s-.8-.1-1.1-.1c-.3-.1-.7.1-.7.4Z"/>
        <path class="cls-1" d="M48.7,7.1c.4.1.8.2,1.1.3h.1c.2,0,.4-.1.4-.4.1-.2,0-.5-.3-.7-.3-.1-.8-.2-1.1-.3-.3,0-.5.1-.7.4,0,.3.1.5.4.7Z"/>
        <path class="cls-1" d="M52.8,8.5c.3.1.7.3,1,.4h.2c.2,0,.4-.2.4-.3.1-.3,0-.7-.3-.8-.3-.2-.7-.3-1-.4-.2-.1-.5,0-.7.3-.1.3,0,.7.3.8Z"/>
        <path class="cls-1" d="M74.6,37.9c.1.3.1.8.1,1.1s.2.5.5.5.5-.3.5-.5c-.1-.3-.1-.8-.1-1.1s-.3-.5-.5-.5c-.3,0-.5.2-.5.5Z"/>
        <path class="cls-1" d="M70.4,58.2c-.2-.1-.7,0-.8.2-.1.2-.3.5-.5.9-.2.2-.1.5.1.8.1.1.2.1.3.1s.3-.1.5-.2c.1-.3.3-.7.5-1,.1-.2,0-.7-.2-.8Z"/>
        <path class="cls-1" d="M73.8,50.4c-.2-.1-.5,0-.7.3s-.2.7-.3,1c-.1.2,0,.5.3.7h.2c.2,0,.4-.1.4-.2.1-.4.2-.8.3-1.1.1-.2,0-.5-.3-.7Z"/>
        <path class="cls-1" d="M74.8,45.9c-.3-.1-.7.1-.7.4-.1.4-.1.8-.2,1.1,0,.3.1.5.4.7h.1c.3,0,.5-.1.5-.4.1-.3.1-.8.2-1.1.1-.3-.1-.7-.4-.7Z"/>
        <path class="cls-1" d="M67.2,62c-.2.3-.4.7-.7.9-.1.2-.1.5.1.8.1.1.2.1.3.1s.2-.1.4-.2c.2-.3.4-.5.7-.9.2-.2.1-.5-.1-.8-.2-.1-.5-.1-.8.1Z"/>
        <path class="cls-1" d="M72.4,54.4c-.3-.2-.7-.1-.8.2s-.3.7-.4,1c-.2.3,0,.7.2.8h.2c.2,0,.4-.1.5-.2.1-.3.3-.7.4-1,.2-.3.1-.7-.2-.8Z"/>
        <path class="cls-1" d="M70.1,21.2c-.2-.2-.5-.3-.8-.1s-.3.5-.1.8.3.5.5.9c.1.1.2.2.4.2h.2c.3-.2.3-.5.2-.8-.1-.3-.3-.7-.5-1Z"/>
        <path class="cls-1" d="M57.6,70.2c-.3.2-.7.3-1,.5-.2.2-.3.5-.2.8s.2.3.4.3.1-.1.3-.1c.3-.2.7-.3,1-.5.3-.2.3-.5.2-.8-.2-.3-.5-.3-.8-.2Z"/>
        <path class="cls-1" d="M53.6,72.2c-.3.2-.7.3-1,.4-.3.1-.4.3-.3.7.1.2.3.3.5.3s.2,0,.2.1c.3-.1.7-.3,1-.4.3-.2.4-.4.3-.8-.2-.3-.4-.4-.8-.3Z"/>
        <path class="cls-1" d="M49.6,73.6c-.4,0-.8.1-1.1.2-.3.1-.5.3-.4.7.1.2.3.4.5.4h.2c.3-.1.8-.2,1.1-.3.2-.1.4-.3.3-.7-.1-.2-.3-.4-.7-.3Z"/>
        <path class="cls-1" d="M64.2,65c-.2.3-.5.5-.8.8-.2.2-.2.5,0,.8.1.1.3.2.4.2s.2,0,.3-.2c.2-.2.5-.5.8-.8.2-.2.2-.5,0-.8-.2-.2-.5-.2-.8,0Z"/>
        <path class="cls-1" d="M61.1,67.9c-.3.2-.5.4-.9.7-.2.2-.3.5-.1.8.1.1.2.2.4.2s.2-.1.3-.1c.3-.2.5-.4.9-.7.2-.2.3-.5.1-.8-.2-.2-.5-.3-.8-.1Z"/>
        <path class="cls-1" d="M45.4,74.5c-.3,0-.7.1-1,.1-.2.1-.4.3-.4.7s.3.4.5.4c.4,0,.8-.1,1.1-.1.3-.1.4-.3.4-.7-.1-.3-.3-.4-.7-.4Z"/>
        <path class="cls-1" d="M22.3,10.8q.1,0,.3-.1c.3-.2.7-.3,1-.5.2-.2.3-.5.2-.8-.2-.2-.5-.3-.8-.2-.3.2-.7.3-1,.5-.3.2-.3.5-.2.8.1.2.2.3.4.3Z"/>
        <path class="cls-1" d="M18.6,13.2c.1,0,.2-.1.3-.1.3-.2.5-.4.9-.7.2-.2.3-.5.1-.8-.1-.2-.4-.3-.8-.1-.3.2-.5.4-.9.7-.2.2-.3.5-.1.8.1.1.2.2.4.2Z"/>
        <path class="cls-1" d="M12.4,19.2c.2,0,.3,0,.4-.2.2-.3.4-.7.7-.9.1-.2.1-.5-.1-.8-.2-.1-.5-.1-.8.1-.2.3-.4.5-.7.9-.2.2-.1.5.1.8.1.1.2.1.3.1Z"/>
        <path class="cls-1" d="M30.3,7.4q.1,0,.1-.1c.4,0,.8-.1,1.1-.2.3,0,.5-.4.4-.7s-.4-.4-.8-.4c-.3.1-.8.2-1.1.3-.2.1-.4.3-.3.7.1.3.3.4.5.4Z"/>
        <path class="cls-1" d="M26.1,8.9c.1,0,.2,0,.1-.1.3-.2.7-.3,1-.4.3-.1.4-.3.3-.7s-.3-.4-.7-.3c-.3.1-.7.3-1,.4-.3.2-.4.4-.3.8.1.2.3.3.5.3Z"/>
        <path class="cls-1" d="M34.5,6.6c.3-.1.7-.1.9-.1.2-.1.4-.3.4-.7-.1-.2-.3-.4-.7-.4s-.5.1-.8.1c-.3.1-.4.3-.4.7s.3.4.5.4Z"/>
        <path class="cls-1" d="M15.3,16.1c.1,0,.2-.1.3-.2.2-.3.5-.5.8-.8.2-.2.2-.5,0-.8-.2-.2-.5-.2-.8,0-.2.2-.5.5-.8.8-.2.2-.2.5,0,.8s.3.2.4.2Z"/>
        <path class="cls-1" d="M8.6,24.7c-.3-.2-.7,0-.8.2-.1.3-.3.7-.4,1-.2.3-.1.7.2.8h.2c.2,0,.4-.1.5-.3.1-.3.3-.7.4-1,.1-.2,0-.5-.2-.7Z"/>
        <path class="cls-1" d="M15.6,65c-.2-.2-.5-.2-.8,0-.2.2-.2.5,0,.8.2.2.5.5.8.8.1.1.2.1.3.1.2,0,.3,0,.4-.1.2-.2.2-.5,0-.8-.2-.2-.5-.5-.8-.8Z"/>
        <path class="cls-1" d="M10.3,58.2c-.2-.3-.5-.3-.8-.2-.3.2-.3.5-.2.8.1.3.3.7.5,1,.1.1.2.2.4.2s.2,0,.4-.1c.2-.2.3-.5.1-.8-.2-.2-.3-.5-.5-.9Z"/>
        <path class="cls-1" d="M18.7,67.8c-.2-.2-.5-.1-.8.1s-.1.5.1.8c.3.2.5.4.9.7.1.1.2.1.3.1.2,0,.4-.1.4-.2.2-.2.1-.5-.1-.8-.3-.2-.5-.4-.9-.7Z"/>
        <path class="cls-1" d="M12.7,61.7c-.2-.2-.5-.3-.8-.1s-.3.5-.1.8c.2.3.4.5.7.9.1.1.3.2.4.2s.2,0,.3-.1c.3-.2.3-.5.1-.8-.2-.3-.4-.5-.7-.9Z"/>
        <path class="cls-1" d="M35.9,75.3c.1-.3-.1-.7-.4-.7s-.8-.1-1.1-.1c-.3-.1-.7.1-.7.4-.1.3.1.7.4.7s.8.1,1.2.1.5-.2.5-.4Z"/>
        <path class="cls-1" d="M31.3,73.9c-.4-.1-.8-.2-1.1-.3-.2-.1-.5,0-.7.3-.1.2,0,.5.3.7s.8.2,1.1.3h.1c.2,0,.4-.2.7-.3,0-.3-.1-.5-.4-.7Z"/>
        <path class="cls-1" d="M27.2,72.5c-.3-.1-.7-.3-1-.4s-.7,0-.8.3c-.1.3,0,.7.3.8s.7.3,1,.4h.2c.2,0,.4-.2.5-.4.1-.2,0-.5-.3-.7Z"/>
        <path class="cls-1" d="M23.3,70.7c-.3-.2-.7-.3-1-.5-.3-.1-.7,0-.8.2-.1.3,0,.7.2.8.3.2.7.3,1,.5,0,.1.1.1.2.1.2,0,.4-.1.5-.3.1-.3,0-.7-.2-.8Z"/>
        <path class="cls-1" d="M4.8,39.3c.3,0,.5-.2.5-.5.1-.3.1-.8.1-1.1s-.2-.5-.5-.5-.5.2-.5.5c-.1.3-.1.8-.1,1.1s.2.5.5.5Z"/>
        <path class="cls-1" d="M6,47.3c-.1-.4-.1-.8-.2-1.1s-.3-.4-.7-.4c-.3.1-.4.3-.4.7.1.3.1.8.2,1.1.1.2.3.4.5.4.4-.1.7-.3.5-.7Z"/>
        <path class="cls-1" d="M5.4,43.1c-.1-.3-.1-.8-.1-1.1s-.2-.5-.5-.5-.5.2-.5.5c.1.3.1.8.1,1.1s.2.5.5.5.5-.2.5-.5Z"/>
        <path class="cls-1" d="M5.3,35c.2,0,.4-.2.5-.4.1-.4.1-.8.2-1.1,0-.3-.1-.5-.4-.7-.3,0-.5.1-.7.4s-.1.8-.2,1.1c0,.3.1.5.5.7Z"/>
        <path class="cls-1" d="M9.6,22.7c.1.1.2.1.3.1.2,0,.3-.1.3-.3.1-.2.3-.5.5-.9.2-.2.1-.5-.1-.8-.2-.2-.5-.1-.8.1-.1.3-.3.7-.5,1-.1.2,0,.7.2.8Z"/>
        <path class="cls-1" d="M8.4,54.4c-.2-.3-.4-.4-.8-.3-.3.2-.4.4-.3.8s.3.7.4,1c.1.2.3.3.5.3h.3c.2-.2.3-.5.2-.8-.1-.3-.3-.7-.4-1Z"/>
        <path class="cls-1" d="M6.6,50.4c-.1-.2-.3-.4-.7-.3-.2.1-.4.3-.3.7.1.4.2.8.3,1.1.1.2.3.3.5.3h.2c.3-.1.4-.4.2-.8-.1-.3-.2-.7-.3-1Z"/>
        <path class="cls-1" d="M6.8,28.7c-.2-.1-.5,0-.7.3-.1.4-.2.8-.3,1.1-.1.2,0,.5.3.7h.1c.2,0,.4-.2.5-.4.1-.3.2-.7.3-1,.1-.2,0-.5-.3-.7Z"/>
        <polygon class="cls-1" points="44.4 7.9 41.9 5.6 45 4 44.4 3 40.1 5.3 43.7 8.8 44.4 7.9"/>
        <polygon class="cls-1" points="35.1 73.2 38.1 74.8 35.6 77.2 36.4 78 39.8 74.6 35.6 72.2 35.1 73.2"/>
      </g>
    </g>
  </g>
</svg>
